<mxfile host="app.diagrams.net" modified="2023-10-16T11:40:20.915Z" agent="Mozilla/5.0 (Windows NT 10.0; Win64; x64) AppleWebKit/537.36 (KHTML, like Gecko) Chrome/117.0.0.0 Safari/537.36 Edg/117.0.2045.60" etag="3QgNzlCFUXo_4NhPM6k-" version="22.0.4" type="device">
  <diagram id="wFE0QG_FPsp0jaGvCLVb" name="Page-1">
    <mxGraphModel dx="1374" dy="765" grid="1" gridSize="10" guides="1" tooltips="1" connect="1" arrows="1" fold="1" page="1" pageScale="1" pageWidth="850" pageHeight="1100" math="0" shadow="0">
      <root>
        <mxCell id="0" />
        <mxCell id="1" parent="0" />
        <mxCell id="zxP3M10PDUYlDx6ob5Ay-1" value="" style="swimlane;startSize=0;" parent="1" vertex="1">
          <mxGeometry x="370" y="260" width="850" height="450" as="geometry" />
        </mxCell>
        <mxCell id="zxP3M10PDUYlDx6ob5Ay-2" value="" style="endArrow=none;html=1;rounded=0;exitX=0.999;exitY=0.578;exitDx=0;exitDy=0;exitPerimeter=0;" parent="zxP3M10PDUYlDx6ob5Ay-1" source="zxP3M10PDUYlDx6ob5Ay-1" edge="1">
          <mxGeometry width="50" height="50" relative="1" as="geometry">
            <mxPoint x="840" y="260" as="sourcePoint" />
            <mxPoint y="260" as="targetPoint" />
          </mxGeometry>
        </mxCell>
        <mxCell id="zxP3M10PDUYlDx6ob5Ay-3" value="" style="endArrow=none;html=1;rounded=0;" parent="zxP3M10PDUYlDx6ob5Ay-1" edge="1">
          <mxGeometry width="50" height="50" relative="1" as="geometry">
            <mxPoint x="150" y="260" as="sourcePoint" />
            <mxPoint x="150" as="targetPoint" />
          </mxGeometry>
        </mxCell>
        <mxCell id="zxP3M10PDUYlDx6ob5Ay-4" value="" style="endArrow=none;html=1;rounded=0;" parent="zxP3M10PDUYlDx6ob5Ay-1" edge="1">
          <mxGeometry width="50" height="50" relative="1" as="geometry">
            <mxPoint x="310" y="260" as="sourcePoint" />
            <mxPoint x="310" as="targetPoint" />
          </mxGeometry>
        </mxCell>
        <mxCell id="zxP3M10PDUYlDx6ob5Ay-5" value="" style="endArrow=none;html=1;rounded=0;" parent="zxP3M10PDUYlDx6ob5Ay-1" edge="1">
          <mxGeometry width="50" height="50" relative="1" as="geometry">
            <mxPoint x="480" y="260" as="sourcePoint" />
            <mxPoint x="480" as="targetPoint" />
          </mxGeometry>
        </mxCell>
        <mxCell id="zxP3M10PDUYlDx6ob5Ay-6" value="" style="endArrow=none;html=1;rounded=0;" parent="zxP3M10PDUYlDx6ob5Ay-1" edge="1">
          <mxGeometry width="50" height="50" relative="1" as="geometry">
            <mxPoint x="670" y="260" as="sourcePoint" />
            <mxPoint x="670" as="targetPoint" />
          </mxGeometry>
        </mxCell>
        <mxCell id="zxP3M10PDUYlDx6ob5Ay-7" value="" style="endArrow=none;html=1;rounded=0;" parent="zxP3M10PDUYlDx6ob5Ay-1" edge="1">
          <mxGeometry width="50" height="50" relative="1" as="geometry">
            <mxPoint x="310" y="140" as="sourcePoint" />
            <mxPoint x="150" y="139.99636363636353" as="targetPoint" />
          </mxGeometry>
        </mxCell>
        <mxCell id="zxP3M10PDUYlDx6ob5Ay-8" value="" style="endArrow=none;html=1;rounded=0;" parent="zxP3M10PDUYlDx6ob5Ay-1" edge="1">
          <mxGeometry width="50" height="50" relative="1" as="geometry">
            <mxPoint x="670" y="140" as="sourcePoint" />
            <mxPoint x="480" y="139.99636363636353" as="targetPoint" />
          </mxGeometry>
        </mxCell>
        <mxCell id="zxP3M10PDUYlDx6ob5Ay-9" value="" style="endArrow=none;html=1;rounded=0;" parent="zxP3M10PDUYlDx6ob5Ay-1" edge="1">
          <mxGeometry width="50" height="50" relative="1" as="geometry">
            <mxPoint x="410" y="450" as="sourcePoint" />
            <mxPoint x="410" y="260" as="targetPoint" />
          </mxGeometry>
        </mxCell>
        <mxCell id="zxP3M10PDUYlDx6ob5Ay-10" value="&lt;b&gt;KEY PARTNERS&lt;br&gt;&lt;/b&gt;&lt;br&gt;- Everywhere you can stay at&lt;br&gt;&lt;br&gt;- Everyone/everything who/that a means to reach the destination" style="text;html=1;strokeColor=none;fillColor=none;align=center;verticalAlign=middle;whiteSpace=wrap;rounded=0;" parent="zxP3M10PDUYlDx6ob5Ay-1" vertex="1">
          <mxGeometry width="150" height="260" as="geometry" />
        </mxCell>
        <mxCell id="zxP3M10PDUYlDx6ob5Ay-11" value="&lt;b&gt;KEY ACTIVITIES&lt;br&gt;&lt;/b&gt;&lt;br&gt;- Programming the app and mantaining it&lt;br&gt;&lt;br&gt;- Partnership and sponsorship negotiations" style="text;html=1;strokeColor=none;fillColor=none;align=center;verticalAlign=middle;whiteSpace=wrap;rounded=0;" parent="zxP3M10PDUYlDx6ob5Ay-1" vertex="1">
          <mxGeometry x="148" width="160" height="140" as="geometry" />
        </mxCell>
        <mxCell id="zxP3M10PDUYlDx6ob5Ay-12" value="&lt;b&gt;KEY RESOURCES&lt;br&gt;&lt;/b&gt;&lt;br&gt;- Hardware and software&lt;br&gt;&lt;br&gt;- Full Stack programmers&lt;br&gt;&lt;br&gt;- Business partner capital" style="text;html=1;strokeColor=none;fillColor=none;align=center;verticalAlign=middle;whiteSpace=wrap;rounded=0;" parent="zxP3M10PDUYlDx6ob5Ay-1" vertex="1">
          <mxGeometry x="150" y="140" width="160" height="120" as="geometry" />
        </mxCell>
        <mxCell id="zxP3M10PDUYlDx6ob5Ay-13" value="&lt;b&gt;VALUE PROPOSITION&lt;br&gt;&lt;/b&gt;&lt;br&gt;- Comfort&lt;br&gt;&lt;br&gt;- Value for money&lt;br&gt;&lt;br&gt;- Variedad" style="text;html=1;strokeColor=none;fillColor=none;align=center;verticalAlign=middle;whiteSpace=wrap;rounded=0;" parent="zxP3M10PDUYlDx6ob5Ay-1" vertex="1">
          <mxGeometry x="310" width="170" height="260" as="geometry" />
        </mxCell>
        <mxCell id="zxP3M10PDUYlDx6ob5Ay-14" value="&lt;b&gt;RELATION W/ COSTUMERS&lt;br&gt;&lt;/b&gt;&lt;br&gt;- Interactions in social networks&lt;br&gt;&lt;br&gt;- Fast and efficient treatment" style="text;html=1;strokeColor=none;fillColor=none;align=center;verticalAlign=middle;whiteSpace=wrap;rounded=0;" parent="zxP3M10PDUYlDx6ob5Ay-1" vertex="1">
          <mxGeometry x="480" width="190" height="140" as="geometry" />
        </mxCell>
        <mxCell id="zxP3M10PDUYlDx6ob5Ay-15" value="&lt;b&gt;COMMUNICATION CHANNELS&lt;br&gt;&lt;/b&gt;&lt;br&gt;- Web&lt;br&gt;- Social Networks&lt;br&gt;- Phone&lt;br&gt;- E-mail" style="text;html=1;strokeColor=none;fillColor=none;align=center;verticalAlign=middle;whiteSpace=wrap;rounded=0;" parent="zxP3M10PDUYlDx6ob5Ay-1" vertex="1">
          <mxGeometry x="480" y="140" width="190" height="120" as="geometry" />
        </mxCell>
        <mxCell id="zxP3M10PDUYlDx6ob5Ay-16" value="&lt;b&gt;CUSTOMER SEGMENTS&lt;br&gt;&lt;/b&gt;&lt;br&gt;- 18-32 y.o. young people&lt;br&gt;&lt;br&gt;- People with an adventurous profile&lt;br&gt;&lt;br&gt;- Unique experiences&lt;br&gt;&lt;br&gt;- Escape from routine" style="text;html=1;strokeColor=none;fillColor=none;align=center;verticalAlign=middle;whiteSpace=wrap;rounded=0;" parent="zxP3M10PDUYlDx6ob5Ay-1" vertex="1">
          <mxGeometry x="670" width="180" height="260" as="geometry" />
        </mxCell>
        <mxCell id="zxP3M10PDUYlDx6ob5Ay-17" value="&lt;b&gt;COST STRUCTURE&lt;br&gt;&lt;/b&gt;&lt;br&gt;- Full Stack programmers&lt;br&gt;&lt;br&gt;- Domain&lt;br&gt;&lt;br&gt;- Hosting&lt;br&gt;&lt;br&gt;- Servers&lt;br&gt;&lt;br&gt;-Development of the algorithm" style="text;html=1;strokeColor=none;fillColor=none;align=center;verticalAlign=middle;whiteSpace=wrap;rounded=0;" parent="zxP3M10PDUYlDx6ob5Ay-1" vertex="1">
          <mxGeometry y="260" width="410" height="190" as="geometry" />
        </mxCell>
        <mxCell id="zxP3M10PDUYlDx6ob5Ay-18" value="&lt;b&gt;SOURCES OF INCOME&lt;br&gt;&lt;/b&gt;&lt;br&gt;- Commissions&lt;br&gt;&lt;br&gt;- Premium subscriptions" style="text;html=1;strokeColor=none;fillColor=none;align=center;verticalAlign=middle;whiteSpace=wrap;rounded=0;" parent="zxP3M10PDUYlDx6ob5Ay-1" vertex="1">
          <mxGeometry x="410" y="260" width="440" height="190" as="geometry" />
        </mxCell>
        <mxCell id="zxP3M10PDUYlDx6ob5Ay-19" value="1" style="ellipse;whiteSpace=wrap;html=1;aspect=fixed;" parent="zxP3M10PDUYlDx6ob5Ay-1" vertex="1">
          <mxGeometry x="430" y="10" width="30" height="30" as="geometry" />
        </mxCell>
        <mxCell id="zxP3M10PDUYlDx6ob5Ay-20" value="2" style="ellipse;whiteSpace=wrap;html=1;aspect=fixed;" parent="zxP3M10PDUYlDx6ob5Ay-1" vertex="1">
          <mxGeometry x="800" y="10" width="30" height="30" as="geometry" />
        </mxCell>
        <mxCell id="zxP3M10PDUYlDx6ob5Ay-21" value="3" style="ellipse;whiteSpace=wrap;html=1;aspect=fixed;" parent="zxP3M10PDUYlDx6ob5Ay-1" vertex="1">
          <mxGeometry x="630" y="220" width="30" height="30" as="geometry" />
        </mxCell>
        <mxCell id="zxP3M10PDUYlDx6ob5Ay-22" value="4" style="ellipse;whiteSpace=wrap;html=1;aspect=fixed;" parent="zxP3M10PDUYlDx6ob5Ay-1" vertex="1">
          <mxGeometry x="500" y="10" width="20" height="20" as="geometry" />
        </mxCell>
        <mxCell id="zxP3M10PDUYlDx6ob5Ay-23" value="5" style="ellipse;whiteSpace=wrap;html=1;aspect=fixed;" parent="zxP3M10PDUYlDx6ob5Ay-1" vertex="1">
          <mxGeometry x="460" y="310" width="30" height="30" as="geometry" />
        </mxCell>
        <mxCell id="zxP3M10PDUYlDx6ob5Ay-24" value="6" style="ellipse;whiteSpace=wrap;html=1;aspect=fixed;" parent="zxP3M10PDUYlDx6ob5Ay-1" vertex="1">
          <mxGeometry x="290" y="150" width="20" height="20" as="geometry" />
        </mxCell>
        <mxCell id="zxP3M10PDUYlDx6ob5Ay-25" value="7" style="ellipse;whiteSpace=wrap;html=1;aspect=fixed;" parent="zxP3M10PDUYlDx6ob5Ay-1" vertex="1">
          <mxGeometry x="280" y="5" width="30" height="30" as="geometry" />
        </mxCell>
        <mxCell id="zxP3M10PDUYlDx6ob5Ay-26" value="8" style="ellipse;whiteSpace=wrap;html=1;aspect=fixed;" parent="zxP3M10PDUYlDx6ob5Ay-1" vertex="1">
          <mxGeometry x="60" y="20" width="30" height="30" as="geometry" />
        </mxCell>
        <mxCell id="zxP3M10PDUYlDx6ob5Ay-27" value="9" style="ellipse;whiteSpace=wrap;html=1;aspect=fixed;" parent="zxP3M10PDUYlDx6ob5Ay-1" vertex="1">
          <mxGeometry x="55" y="350" width="30" height="30" as="geometry" />
        </mxCell>
      </root>
    </mxGraphModel>
  </diagram>
</mxfile>
